<svg width="120" height="98" viewBox="0 0 120 98" fill="none" xmlns="http://www.w3.org/2000/svg">
<rect x="0.673794" y="0.219754" width="118.279" height="97.121" rx="12.9655" fill="url(#paint0_linear_1_492)" fill-opacity="0.17" stroke="url(#paint1_linear_1_492)" stroke-width="0.439508"/>
<path d="M93.2391 28.4136C90.7807 29.4568 88.1054 30.2076 85.3497 30.5001C88.2107 28.828 90.3532 26.1865 91.3752 23.071C88.6905 24.6421 85.7494 25.7438 82.6824 26.3271C81.4005 24.9791 79.8502 23.9051 78.1279 23.1722C76.4057 22.4393 74.5485 22.0632 72.672 22.0673C65.0799 22.0673 58.974 28.1212 58.974 35.5502C58.974 36.5935 59.1026 37.6367 59.3115 38.6404C47.9433 38.0556 37.8044 32.713 31.0639 24.5331C29.8357 26.5968 29.192 28.9465 29.2 31.3378C29.2 36.0165 31.6182 40.142 35.3058 42.5683C33.1327 42.4841 31.0104 41.8965 29.1116 40.8533V41.0193C29.1116 47.5711 33.8195 53.0006 40.0941 54.2493C38.916 54.5504 37.704 54.7044 36.4868 54.7077C35.595 54.7077 34.7515 54.6208 33.8999 54.5022C35.6352 59.8448 40.6886 63.7253 46.7061 63.8518C41.9981 67.4794 36.1012 69.6132 29.6981 69.6132C28.5492 69.6132 27.4887 69.5737 26.3881 69.4473C32.4618 73.2803 39.6683 75.4932 47.4291 75.4932C72.6238 75.4932 86.4102 54.9606 86.4102 37.1388C86.4102 36.5539 86.4102 35.9691 86.37 35.3843C89.0373 33.4638 91.3752 31.0849 93.2391 28.4136Z" fill="#1D9BF0"/>
<defs>
<linearGradient id="paint0_linear_1_492" x1="0.454041" y1="0" x2="136.604" y2="46.2879" gradientUnits="userSpaceOnUse">
<stop stop-color="white"/>
<stop offset="1" stop-color="white" stop-opacity="0.6"/>
</linearGradient>
<linearGradient id="paint1_linear_1_492" x1="2.15001" y1="8.98961e-06" x2="133.728" y2="46.7803" gradientUnits="userSpaceOnUse">
<stop stop-color="white"/>
<stop offset="1" stop-color="white" stop-opacity="0"/>
</linearGradient>
</defs>
</svg>
