<svg width="119" height="98" viewBox="0 0 119 98" fill="none" xmlns="http://www.w3.org/2000/svg">
<rect x="0.219754" y="0.659268" width="118.279" height="97.121" rx="12.9655" fill="url(#paint0_linear_1_479)" fill-opacity="0.17" stroke="url(#paint1_linear_1_479)" stroke-width="0.439508"/>
<g clip-path="url(#clip0_1_479)">
<path d="M59.3604 82.9013C77.8208 82.9013 92.7859 67.8215 92.7859 49.2197C92.7859 30.6179 77.8208 15.5381 59.3604 15.5381C40.9 15.5381 25.9349 30.6179 25.9349 49.2197C25.9349 67.8215 40.9 82.9013 59.3604 82.9013Z" fill="#FF4500"/>
<path d="M81.6545 49.2196C81.6201 48.2715 81.3143 47.3537 80.7739 46.5768C80.2335 45.8 79.4817 45.1972 78.609 44.8411C77.7363 44.4851 76.7801 44.3911 75.8555 44.5703C74.931 44.7496 74.0777 45.1945 73.3984 45.8514C69.596 43.2469 65.1263 41.808 60.5296 41.7086L62.7022 31.1999L69.8553 32.7156C69.9403 33.5121 70.3043 34.252 70.8819 34.8025C71.4596 35.3529 72.213 35.6779 73.0069 35.7191C73.8009 35.7602 74.5834 35.5149 75.214 35.0271C75.8447 34.5393 76.2821 33.8409 76.4478 33.0574C76.6135 32.2739 76.4967 31.4565 76.1182 30.752C75.7397 30.0475 75.1245 29.502 74.3828 29.2134C73.6412 28.9248 72.8218 28.912 72.0716 29.1773C71.3215 29.4426 70.6898 29.9687 70.2898 30.661L62.1006 29.0106C61.9666 28.981 61.8282 28.9785 61.6933 29.0032C61.5584 29.0279 61.4297 29.0793 61.3147 29.1545C61.1996 29.2297 61.1005 29.3272 61.0231 29.4412C60.9458 29.5553 60.8916 29.6837 60.8638 29.819L58.3903 41.5065C53.7371 41.5772 49.2059 43.0172 45.3544 45.6494C44.8391 45.1608 44.2246 44.791 43.5534 44.5656C42.8821 44.3401 42.1703 44.2645 41.4672 44.3438C40.7641 44.4232 40.0865 44.6556 39.4814 45.025C38.8763 45.3945 38.3581 45.8921 37.9628 46.4834C37.5675 47.0747 37.3046 47.7455 37.1921 48.4494C37.0797 49.1532 37.1205 49.8733 37.3117 50.5597C37.5029 51.2462 37.84 51.8825 38.2995 52.4246C38.759 52.9667 39.33 53.4016 39.9729 53.6993C39.9353 54.1925 39.9353 54.688 39.9729 55.1812C39.9729 62.7259 48.6969 68.856 59.46 68.856C70.223 68.856 78.947 62.7259 78.947 55.1812C78.9847 54.688 78.9847 54.1925 78.947 53.6993C79.7719 53.2861 80.4638 52.6462 80.9429 51.8535C81.4221 51.0608 81.6688 50.1476 81.6545 49.2196ZM48.229 52.5878C48.229 51.9216 48.425 51.2704 48.7923 50.7165C49.1596 50.1626 49.6816 49.7309 50.2924 49.476C50.9032 49.2211 51.5753 49.1544 52.2236 49.2843C52.872 49.4143 53.4676 49.7351 53.9351 50.2061C54.4025 50.6772 54.7209 51.2773 54.8499 51.9307C54.9788 52.584 54.9126 53.2613 54.6597 53.8767C54.4067 54.4922 53.9782 55.0182 53.4286 55.3883C52.8789 55.7584 52.2326 55.9559 51.5715 55.9559C51.1326 55.9559 50.6979 55.8688 50.2924 55.6995C49.8869 55.5303 49.5184 55.2822 49.208 54.9694C48.8976 54.6566 48.6514 54.2853 48.4834 53.8767C48.3154 53.4681 48.229 53.0301 48.229 52.5878ZM67.6492 61.8502C65.2777 63.651 62.36 64.5676 59.3931 64.4437C56.4262 64.5676 53.5085 63.651 51.137 61.8502C50.9949 61.6757 50.9222 61.4541 50.9332 61.2287C50.9442 61.0032 51.038 60.7899 51.1965 60.6302C51.3549 60.4706 51.5666 60.376 51.7904 60.365C52.0141 60.3539 52.234 60.4271 52.4072 60.5703C54.4168 62.0557 56.8699 62.8043 59.3597 62.6922C61.8526 62.8288 64.317 62.104 66.3456 60.6377C66.5229 60.4635 66.7616 60.3674 67.0092 60.3705C67.1318 60.3721 67.2529 60.398 67.3656 60.4467C67.4783 60.4954 67.5803 60.566 67.6659 60.6545C67.7515 60.743 67.819 60.8476 67.8645 60.9623C67.91 61.077 67.9326 61.1997 67.931 61.3232C67.9295 61.4467 67.9038 61.5688 67.8554 61.6823C67.8071 61.7958 67.737 61.8987 67.6492 61.9849V61.8502ZM67.0476 56.0907C66.3865 56.0907 65.7402 55.8931 65.1905 55.523C64.6409 55.1529 64.2124 54.6269 63.9594 54.0114C63.7064 53.396 63.6403 52.7188 63.7692 52.0654C63.8982 51.412 64.2165 50.8119 64.684 50.3408C65.1515 49.8698 65.7471 49.549 66.3955 49.419C67.0438 49.2891 67.7159 49.3558 68.3267 49.6107C68.9375 49.8656 69.4595 50.2973 69.8268 50.8512C70.1941 51.4051 70.3901 52.0563 70.3901 52.7225C70.4083 53.1789 70.3341 53.6342 70.1722 54.0608C70.0102 54.4874 69.7639 54.8763 69.4481 55.204C69.1323 55.5316 68.7537 55.7911 68.3353 55.9667C67.9169 56.1423 67.4674 56.2303 67.0141 56.2254L67.0476 56.0907Z" fill="white"/>
</g>
<defs>
<linearGradient id="paint0_linear_1_479" x1="0" y1="0.439514" x2="136.15" y2="46.7274" gradientUnits="userSpaceOnUse">
<stop stop-color="white"/>
<stop offset="1" stop-color="white" stop-opacity="0.6"/>
</linearGradient>
<linearGradient id="paint1_linear_1_479" x1="1.69597" y1="0.439523" x2="133.274" y2="47.2199" gradientUnits="userSpaceOnUse">
<stop stop-color="white"/>
<stop offset="1" stop-color="white" stop-opacity="0"/>
</linearGradient>
<clipPath id="clip0_1_479">
<rect width="66.851" height="67.3632" fill="white" transform="translate(25.934 15.538)"/>
</clipPath>
</defs>
</svg>
